<svg id="Lag_1" data-name="Lag 1" xmlns="http://www.w3.org/2000/svg" xmlns:xlink="http://www.w3.org/1999/xlink" viewBox="0 0 467 467"><defs><style>.cls-1{fill:#fff;stroke:#e0e0e0;stroke-miterlimit:10;stroke-width:9px;}.cls-2{opacity:0.1;fill:url(#Ikke-navngivet_forløb_13);}.cls-3{font-size:301.32px;fill:#34c6d3;font-family:MyriadPro-Regular, Myriad Pro;}</style><linearGradient id="Ikke-navngivet_forløb_13" x1="216.83" y1="214.85" x2="465.38" y2="477.03" gradientUnits="userSpaceOnUse"><stop offset="0"/><stop offset="0.74" stop-color="#fff"/></linearGradient></defs><title>Icon</title><path class="cls-1" d="M479,250q0,7.12-.44,14.12C471.32,383.3,372.94,477.85,252.2,479c-.72,0-1.46,0-2.2,0C123.52,479,21,376.48,21,250S123.52,21,250,21,479,123.52,479,250Z" transform="translate(-16.5 -16.5)"/><path class="cls-2" d="M478.56,264.12C471.32,383.3,372.94,477.85,252.2,479L121.94,340.39l63.28-18.08L207.82,137l55.74,54.24a68.93,68.93,0,0,1,6.53-13.92c10.64-17.31,26.13-25.08,32.64-28.27a87.15,87.15,0,0,1,53.62-7.17Z" transform="translate(-16.5 -16.5)"/><text class="cls-3" transform="translate(102.74 324.28)">JS</text></svg>